<svg width="102" height="25" viewBox="0 0 102 25" fill="none" xmlns="http://www.w3.org/2000/svg">
<path d="M19.5627 15.0942C19.5448 12.4189 18.5756 10.1052 16.6732 8.20718C14.9861 6.52609 12.994 5.58612 10.6967 5.36921V5.35113L9.96084 5.33306C9.907 5.33306 9.85316 5.33306 9.79931 5.33306H9.33268L9.06347 5.35113V5.36921C6.92772 5.51382 5.06118 6.2911 3.44591 7.70104V1.62743C3.37412 0.723619 2.63828 0.0186462 1.72296 0.0186462C0.807636 0.0186462 0.0717899 0.723619 0 1.62743C0 1.66358 0 1.69974 0 1.75396V15.0942V15.1304V22.9935C0.0179475 23.9335 0.789688 24.6927 1.72296 24.6927C2.65622 24.6927 3.42797 23.9335 3.44591 22.9935V22.3247C5.15092 24.0962 7.26872 25 9.76342 25C12.4376 25 14.7528 24.042 16.6552 22.1439C18.5756 20.2459 19.5448 17.896 19.5448 15.1846L19.5627 15.0942ZM14.2503 19.6856C12.994 20.9328 11.5223 21.5294 9.76342 21.5294C8.02252 21.5294 6.56877 20.9328 5.31245 19.6856C4.05613 18.4202 3.44591 16.9561 3.44591 15.1665V15.1123C3.46386 13.3589 4.07407 11.8947 5.2945 10.6836C6.53288 9.43636 8.00457 8.82177 9.76342 8.80369L10.0865 8.82177C11.7017 8.89407 13.0658 9.50867 14.2503 10.6836C15.4887 11.8947 16.0809 13.3408 16.0989 15.1123V15.1665C16.1168 16.9561 15.5066 18.4202 14.2503 19.6856Z" fill="#272B44"/>
<path d="M38.0338 7.97C36.1493 6.07199 33.87 5.11395 31.2137 5.11395C28.5396 5.11395 26.2064 6.09007 24.304 7.98807C22.4195 9.88608 21.4683 12.2179 21.4683 14.9113C21.4683 17.6046 22.4195 19.9365 24.304 21.8706C26.2064 23.7867 28.5216 24.7447 31.2137 24.7447C32.8469 24.7447 34.3904 24.3471 35.8083 23.5517C36.4544 23.1902 37.0646 22.7564 37.603 22.2864C38.0697 21.9068 38.3209 21.4187 38.3209 20.8945C38.3209 19.9365 37.5492 19.1592 36.598 19.1592C36.1313 19.1592 35.6826 19.358 35.3596 19.7015C34.2468 20.7318 32.829 21.256 31.2317 21.256C29.4908 21.256 28.037 20.6595 26.7807 19.4123C25.9551 18.5807 25.4346 17.6769 25.1654 16.6104H39.2183C40.1695 16.6104 40.9592 15.8332 40.9592 14.8751C40.8874 12.1998 39.9182 9.868 38.0338 7.97ZM31.2137 8.56651C32.7752 8.56651 34.1571 9.09072 35.3237 10.1391C36.2929 11.0068 36.921 12.001 37.2441 13.2121H25.1475C25.4167 12.1818 25.9731 11.2418 26.7628 10.4464C28.0191 9.16303 29.4728 8.56651 31.2137 8.56651Z" fill="#272B44"/>
<path d="M45.0066 0C44.0554 0 43.2837 0.777278 43.2837 1.73532V22.9387C43.2837 23.8968 44.0554 24.674 45.0066 24.674C45.9579 24.674 46.7296 23.8968 46.7296 22.9387V1.73532C46.7296 0.777278 45.9579 0 45.0066 0Z" fill="#272B44"/>
<path d="M52.0062 5.6398C51.0549 5.6398 50.2832 6.41708 50.2832 7.37512V22.9388C50.2832 23.8968 51.0549 24.6741 52.0062 24.6741C52.9574 24.6741 53.7291 23.8968 53.7291 22.9388V7.37512C53.7471 6.41708 52.9753 5.6398 52.0062 5.6398Z" fill="#272B44"/>
<path d="M59.0237 5.6398C58.0725 5.6398 57.3008 6.41708 57.3008 7.37512V22.9388C57.3008 23.8968 58.0725 24.6741 59.0237 24.6741C59.975 24.6741 60.7467 23.8968 60.7467 22.9388V7.37512C60.7467 6.41708 59.975 5.6398 59.0237 5.6398Z" fill="#272B44"/>
<path d="M79.4479 5.6398C78.7479 5.6398 78.1377 6.07363 77.8685 6.67015L72.2151 19.0885L66.5616 6.67015C66.2924 6.05555 65.6822 5.6398 64.9822 5.6398C64.031 5.6398 63.2593 6.41708 63.2593 7.37512C63.2593 7.68242 63.3311 7.95356 63.4746 8.20663L70.6716 23.7522L70.7075 23.8064C71.0485 24.3668 71.6048 24.7102 72.233 24.7102C72.8432 24.7102 73.4175 24.3668 73.7585 23.8064L73.7944 23.7522L80.9914 8.20663C81.117 7.95356 81.2067 7.68242 81.2067 7.37512C81.1708 6.41708 80.3991 5.6398 79.4479 5.6398Z" fill="#272B44"/>
<path d="M98.3467 8.1885C96.4623 6.2905 94.1829 5.33246 91.5267 5.33246C88.8525 5.33246 86.5194 6.30857 84.617 8.20658C82.7325 10.1046 81.7812 12.4364 81.7812 15.1298C81.7812 17.8231 82.7325 20.155 84.617 22.0891C86.5194 24.0052 88.8346 24.9632 91.5267 24.9632C93.1599 24.9632 94.7034 24.5656 96.1213 23.7702C96.7674 23.4087 97.3776 22.9749 97.916 22.5049C98.3826 22.1253 98.6339 21.6372 98.6339 21.113C98.6339 20.155 97.8622 19.3777 96.911 19.3777C96.4443 19.3777 95.9956 19.5765 95.6726 19.92C94.5598 20.9503 93.142 21.4745 91.5447 21.4745C89.8038 21.4745 88.35 20.878 87.0937 19.6308C86.2681 18.7992 85.7476 17.8954 85.4784 16.8289H99.5313C100.482 16.8289 101.272 16.0517 101.272 15.0936C101.2 12.4183 100.231 10.0865 98.3467 8.1885ZM91.5267 8.78502C93.0881 8.78502 94.4701 9.30923 95.6367 10.3576C96.6058 11.2253 97.234 12.2195 97.5571 13.4306H85.4605C85.7297 12.4003 86.2861 11.4603 87.0757 10.6649C88.3321 9.38153 89.7858 8.78502 91.5267 8.78502Z" fill="#272B44"/>
<path d="M52.0065 4.266C53.1364 4.266 54.0525 3.3434 54.0525 2.20531C54.0525 1.06723 53.1364 0.144623 52.0065 0.144623C50.8765 0.144623 49.9604 1.06723 49.9604 2.20531C49.9604 3.3434 50.8765 4.266 52.0065 4.266Z" fill="url(#paint0_linear)"/>
<path d="M59.0055 4.266C60.1355 4.266 61.0515 3.3434 61.0515 2.20531C61.0515 1.06723 60.1355 0.144623 59.0055 0.144623C57.8755 0.144623 56.9595 1.06723 56.9595 2.20531C56.9595 3.3434 57.8755 4.266 59.0055 4.266Z" fill="url(#paint1_linear)"/>
<defs>
<linearGradient id="paint0_linear" x1="50.1274" y1="2.99404" x2="53.9108" y2="1.44751" gradientUnits="userSpaceOnUse">
<stop stop-color="#069A92"/>
<stop offset="1" stop-color="#1BB68C"/>
</linearGradient>
<linearGradient id="paint1_linear" x1="57.1264" y1="2.99434" x2="60.9098" y2="1.44782" gradientUnits="userSpaceOnUse">
<stop stop-color="#069A92"/>
<stop offset="1" stop-color="#1BB68C"/>
</linearGradient>
</defs>
</svg>
