<?xml version="1.0" encoding="utf-8"?>
<!-- Generator: Adobe Illustrator 21.0.0, SVG Export Plug-In . SVG Version: 6.00 Build 0)  -->
<svg version="1.1" id="FUTURO_ICONS" xmlns="http://www.w3.org/2000/svg" xmlns:xlink="http://www.w3.org/1999/xlink" x="0px"
	 y="0px" viewBox="0 0 605.6 486.8" style="enable-background:new 0 0 605.6 486.8;" xml:space="preserve">
<style type="text/css">
	.st0{fill:none;stroke:#727272;stroke-width:2;stroke-linejoin:round;stroke-miterlimit:10;}
	.st1{fill:#FFFFFF;}
	.st2{fill:none;stroke:#727272;stroke-width:3;stroke-linejoin:round;stroke-miterlimit:10;}
	.st3{fill:none;stroke:#FD6A02;stroke-width:3;stroke-linejoin:round;stroke-miterlimit:10;}
	.st4{fill:none;stroke:#FD6A02;stroke-width:2;stroke-linejoin:round;stroke-miterlimit:10;stroke-dasharray:4,4;}
	.st5{fill:#FD6A02;}
	.st6{fill:#727272;}
	.st7{fill:none;stroke:#FD6A02;stroke-width:2;stroke-linejoin:round;stroke-dasharray:4,4;}
</style>
<g>
	<g>
		<g>
			<polygon class="st0" points="266.5,143.5 204.8,143.5 200.2,138.9 200.2,136.6 227.6,136.6 229.9,138.9 241.4,138.9 243.6,136.6 
				271.1,136.6 271.1,138.9 			"/>
			<path class="st0" d="M266.5,133.2V98.8c0-1.9-1.5-3.4-3.4-3.4h-54.9c-1.9,0-3.4,1.5-3.4,3.4v34.3"/>
			<line class="st0" x1="229.9" y1="129.7" x2="232.2" y2="129.7"/>
			<line class="st0" x1="225.3" y1="129.7" x2="227.6" y2="129.7"/>
			<line class="st0" x1="234.5" y1="129.7" x2="236.8" y2="129.7"/>
			<line class="st0" x1="239.1" y1="129.7" x2="241.4" y2="129.7"/>
			<line class="st0" x1="243.6" y1="129.7" x2="245.9" y2="129.7"/>
			<polyline class="st0" points="223.1,129.7 209.3,129.7 209.3,100 261.9,100 261.9,129.7 248.2,129.7 			"/>
		</g>
	</g>
</g>
<g>
	<g>
		<g>
			<path class="st0" d="M419.8,235.3c0.1-1,0.2-2.1,0.2-3.1c0-1.1-0.1-2.1-0.2-3.1l-4.4-1.1c-0.1-0.5-0.2-1.1-0.3-1.6l3.8-2.5
				c-0.5-2-1.3-4-2.1-5.9l-4.6,0.5c-0.3-0.5-0.5-1-0.8-1.4l2.7-3.7c-1.2-1.7-2.5-3.3-4-4.8l-4.1,2c-0.4-0.4-0.8-0.7-1.3-1.1l1.3-4.4
				c-1.7-1.2-3.5-2.3-5.4-3.1l-3.2,3.3c-0.5-0.2-1-0.4-1.5-0.6l-0.3-4.6c-2-0.5-4.1-0.9-6.2-1.1l-1.8,4.2c-0.3,0-0.5,0-0.8,0
				s-0.5,0-0.8,0l-1.8-4.2c-2.1,0.2-4.2,0.5-6.2,1.1l-0.3,4.6c-0.5,0.2-1,0.4-1.5,0.6L373,202c-1.9,0.9-3.7,1.9-5.4,3.1l1.3,4.4
				c-0.4,0.3-0.8,0.7-1.3,1.1l-4.1-2c-1.5,1.5-2.8,3.1-4,4.8l2.7,3.7c-0.3,0.5-0.6,0.9-0.8,1.4l-4.6-0.5c-0.9,1.9-1.6,3.8-2.1,5.9
				l3.8,2.5c-0.1,0.5-0.2,1.1-0.3,1.6l-4.4,1.1c-0.1,1-0.2,2.1-0.2,3.1c0,1.1,0.1,2.1,0.2,3.1l4.4,1.1c0.1,0.5,0.2,1.1,0.3,1.6
				l-3.8,2.5c0.5,2,1.3,4,2.1,5.9l4.6-0.5c0.3,0.5,0.5,1,0.8,1.4l-2.7,3.7c1.2,1.7,2.5,3.3,4,4.8l4.1-2c0.4,0.4,0.8,0.7,1.3,1.1
				l-1.3,4.4c1.7,1.2,3.5,2.3,5.4,3.1l3.2-3.3c0.5,0.2,1,0.4,1.5,0.6l0.3,4.6c2,0.5,4.1,0.9,6.2,1.1l1.8-4.2c0.3,0,0.5,0,0.8,0
				s0.5,0,0.8,0l1.8,4.2c2.1-0.2,4.2-0.5,6.2-1.1l0.3-4.6c0.5-0.2,1-0.4,1.5-0.6l3.2,3.3c1.9-0.9,3.7-1.9,5.4-3.1l-1.3-4.4
				c0.4-0.3,0.8-0.7,1.3-1.1l4.1,2c1.5-1.5,2.8-3.1,4-4.8l-2.7-3.7c0.3-0.5,0.6-0.9,0.8-1.4l4.6,0.5c0.9-1.9,1.6-3.8,2.1-5.9
				L415,238c0.1-0.5,0.2-1.1,0.3-1.6L419.8,235.3z"/>
			<path class="st0" d="M364.1,232.2c0-12.4,10.1-22.5,22.5-22.5"/>
			<path class="st0" d="M409.2,232.2c0,12.4-10.1,22.5-22.5,22.5"/>
			<path class="st0" d="M402.6,234.2c0.1-0.7,0.1-1.3,0.1-2s-0.1-1.4-0.1-2l-3.5-1c-0.2-0.6-0.3-1.3-0.6-1.9l2.2-2.9
				c-0.7-1.2-1.5-2.3-2.4-3.3l-3.4,1.2c-0.5-0.4-1-0.8-1.6-1.1l0.1-3.6c-1.2-0.6-2.5-1-3.8-1.3l-2,3c-0.3,0-0.6,0-1,0
				c-0.3,0-0.7,0-1,0l-2-3c-1.3,0.3-2.6,0.7-3.8,1.3l0.1,3.6c-0.6,0.3-1.1,0.7-1.6,1.1l-3.4-1.2c-0.9,1-1.7,2.1-2.4,3.3l2.2,2.9
				c-0.2,0.6-0.4,1.2-0.6,1.9l-3.5,1c-0.1,0.7-0.1,1.3-0.1,2s0.1,1.4,0.1,2l3.5,1c0.2,0.6,0.3,1.3,0.6,1.9l-2.2,2.9
				c0.7,1.2,1.5,2.3,2.4,3.3l3.4-1.2c0.5,0.4,1,0.8,1.6,1.1l-0.1,3.6c1.2,0.6,2.5,1,3.8,1.3l2-3c0.3,0,0.6,0,1,0c0.3,0,0.7,0,1,0
				l2,3c1.3-0.3,2.6-0.7,3.8-1.3l-0.1-3.6c0.6-0.3,1.1-0.7,1.6-1.1l3.4,1.2c0.9-1,1.7-2.1,2.4-3.3l-2.2-2.9c0.2-0.6,0.4-1.2,0.6-1.9
				L402.6,234.2z"/>
			<circle class="st0" cx="386.7" cy="232.2" r="6.4"/>
		</g>
	</g>
</g>
<g>
	<g>
		<polyline class="st0" points="442.2,137.3 432.5,137.3 432.5,147.1 422.7,137.3 415.3,137.3 415.3,105.5 461.8,105.5 461.8,137.3 
			458.1,137.3 		"/>
		<g>
			<rect x="415.3" y="152" class="st0" width="18.3" height="29.4"/>
			<path class="st0" d="M437.4,178.9l4.9,2.4H463c2,0,3.7-1.6,3.7-3.7c0-2-1.6-3.7-3.7-3.7h1.2c2,0,3.7-1.6,3.7-3.7
				c0-2-1.6-3.7-3.7-3.7h2.4c2,0,3.7-1.6,3.7-3.7c0-2-1.6-3.7-3.7-3.7h-1.2c2,0,3.7-1.6,3.7-3.7c0-2-1.6-3.7-3.7-3.7h-15.9l4.9-13.5
				v-2.4c0-2-1.6-3.7-3.7-3.7c-2,0-3.7,1.6-3.7,3.7l-3.7,7.3l-7.3,8.6h-2.4"/>
			<line class="st0" x1="428.8" y1="175.2" x2="428.8" y2="177.6"/>
		</g>
		<polyline class="st0" points="465.5,115.3 491.2,115.3 491.2,144.6 483.8,144.6 474,154.4 474,144.6 458.1,144.6 		"/>
		<g>
			<line class="st0" x1="432.5" y1="121.4" x2="434.9" y2="121.4"/>
			<line class="st0" x1="437.4" y1="121.4" x2="439.8" y2="121.4"/>
			<line class="st0" x1="442.2" y1="121.4" x2="444.7" y2="121.4"/>
		</g>
		<line class="st0" x1="485.1" y1="122.6" x2="465.5" y2="122.6"/>
		<line class="st0" x1="485.1" y1="130" x2="465.5" y2="130"/>
		<line class="st0" x1="485.1" y1="137.3" x2="465.5" y2="137.3"/>
		<rect x="422.7" y="115.3" class="st0" width="31.8" height="12.2"/>
	</g>
</g>
<circle class="st1" cx="292.5" cy="222.7" r="88.6"/>
<rect x="275.5" y="337.4" class="st1" width="34" height="63.7"/>
<g>
	<g>
		<line class="st0" x1="180.4" y1="356.8" x2="128.4" y2="356.8"/>
		<g>
			<polyline class="st0" points="199.2,312.1 199.2,296.2 176.1,296.2 173.2,299.1 135.7,299.1 132.8,296.2 109.7,296.2 
				109.7,312.1 			"/>
			<path class="st0" d="M168.9,286.3c2.4,0,2.9,1.7,2.9,4.1v8.7h-34.6v-8.7c0-2.4,0.5-4.3,2.9-4.3"/>
			<g>
				<path class="st0" d="M145.8,286.1c0,1.6-1.3,2.9-2.9,2.9s-2.9-1.3-2.9-2.9v-7.2l5.8-8.7v-4.3"/>
				<path class="st0" d="M145.8,281.7v8.7c0,1.6,1.3,2.9,2.9,2.9h1.4l1.4-1.4l1.4,1.4h2.9l1.4-1.4l1.4,1.4h2.9l1.4-1.4l1.4,1.4h1.4
					c1.6,0,2.9-1.3,2.9-2.9v-10.1l-4.3-11.5v-2.9"/>
				<line class="st0" x1="151.5" y1="291.8" x2="151.5" y2="287.5"/>
				<line class="st0" x1="157.3" y1="291.8" x2="157.3" y2="287.5"/>
				<line class="st0" x1="163.1" y1="291.8" x2="163.1" y2="287.5"/>
			</g>
			<rect x="118.3" y="296.2" class="st0" width="5.8" height="60.6"/>
			<rect x="184.7" y="296.2" class="st0" width="5.8" height="60.6"/>
			<rect x="148.6" y="310.6" class="st0" width="11.5" height="11.5"/>
			<line class="st0" x1="144.3" y1="316.4" x2="124.1" y2="316.4"/>
			<line class="st0" x1="164.5" y1="316.4" x2="184.7" y2="316.4"/>
			<polyline class="st0" points="118.3,356.8 109.7,356.8 109.7,316.4 118.3,316.4 			"/>
			<polyline class="st0" points="190.5,316.4 199.2,316.4 199.2,356.8 190.5,356.8 			"/>
			<polyline class="st0" points="115.4,296.2 115.4,293.3 127,293.3 127,296.2 			"/>
			<polyline class="st0" points="181.9,296.2 181.9,293.3 193.4,293.3 193.4,296.2 			"/>
			<line class="st0" x1="147.2" y1="327.9" x2="150.1" y2="327.9"/>
			<line class="st0" x1="153" y1="327.9" x2="155.9" y2="327.9"/>
			<line class="st0" x1="158.8" y1="327.9" x2="161.6" y2="327.9"/>
		</g>
	</g>
</g>
<polyline class="st2" points="275.5,401.2 275.5,337.4 309.4,337.4 309.4,401.2 "/>
<g>
	<path class="st2" d="M339.2,222.7c0,22.9-16.5,42-38.2,46c-2.8,0.5-5.6,0.8-8.5,0.8c-25.8,0-46.7-20.9-46.7-46.7
		c0-22.9,16.5-42,38.2-46c2.8-0.5,5.6-0.8,8.5-0.8C318.3,176,339.2,196.9,339.2,222.7z"/>
</g>
<line class="st3" x1="330.7" y1="354.4" x2="339.2" y2="354.4"/>
<line class="st3" x1="347.7" y1="354.4" x2="356.2" y2="354.4"/>
<line class="st3" x1="364.7" y1="354.4" x2="373.2" y2="354.4"/>
<line class="st3" x1="211.7" y1="354.4" x2="220.2" y2="354.4"/>
<line class="st3" x1="228.7" y1="354.4" x2="237.2" y2="354.4"/>
<line class="st3" x1="245.7" y1="354.4" x2="254.2" y2="354.4"/>
<line class="st2" x1="309.4" y1="354.4" x2="275.5" y2="354.4"/>
<path class="st2" d="M292.5,311.9c-49.3,0-89.2-39.9-89.2-89.2s39.9-89.2,89.2-89.2s89.2,39.9,89.2,89.2c0,43.5-31.1,79.7-72.2,87.6
	"/>
<path class="st2" d="M292.5,337.4v-42.5c39.9,0,72.2-32.3,72.2-72.2s-32.3-72.2-72.2-72.2s-72.2,32.3-72.2,72.2
	c0,34,23.5,62.6,55.2,70.2"/>
<g>
	<g>
		<g>
			<g>
				<line class="st0" x1="110.5" y1="157.3" x2="135" y2="157.3"/>
				<polyline class="st0" points="150.9,174.4 147.2,178.1 147.2,180.5 142.3,185.4 				"/>
				<path class="st0" d="M121.5,185.4l13.5,13.5c0,0,1.2,1.2,2.4,1.2c2,0,3.7-1.6,3.7-3.7c0-1.2-1.2-2.4-1.2-2.4l-13.5-13.5"/>
				<path class="st0" d="M133.8,197.7c0,0,1.2,1.2,1.2,2.4c0,2-1.6,3.7-3.7,3.7c-1.2,0-2.4-1.2-2.4-1.2l-12.2-12.2"/>
				<path class="st0" d="M126.4,200.1c0,0,1.2,1.2,1.2,2.4c0,2-1.6,3.7-3.7,3.7c-1.2,0-2.4-1.2-2.4-1.2l-22-22v-3.7l-4.9-4.9"/>
				<path class="st0" d="M105.6,190.3c0,0-1.2,1.2-2.4,1.2c-2,0-3.7-1.6-3.7-3.7c0-1.2,1.2-2.4,1.2-2.4"/>
				<path class="st0" d="M110.5,195.2c0,0-1.2,1.2-2.4,1.2c-2,0-3.7-1.6-3.7-3.7c0-1.2,1.2-2.4,1.2-2.4"/>
				<path class="st0" d="M115.4,200.1c0,0-1.2,1.2-2.4,1.2c-2,0-3.7-1.6-3.7-3.7c0-1.2,1.2-2.4,1.2-2.4"/>
				<path class="st0" d="M120.3,205c0,0-1.2,1.2-2.4,1.2c-2,0-3.7-1.6-3.7-3.7c0-1.2,1.2-2.4,1.2-2.4"/>
				<path class="st0" d="M119.1,157.3l-7.3,7.3c0,0-1.2,1.2-1.2,2.4c0,2,1.6,3.7,3.7,3.7c1.2,0,2.4-1.2,2.4-1.2l6.1-6.1h3.7v7.3
					l15.9,15.9c0,0,1.2,1.2,1.2,2.4c0,2-1.6,3.7-3.7,3.7c-1.2,0-2.4-1.2-2.4-1.2"/>
				<path class="st0" d="M136.2,169.5c0,2-1.6,3.7-3.7,3.7h-3.7"/>
				<polyline class="st0" points="160.7,168.3 154.5,174.4 152.1,174.4 132.5,154.8 132.5,152.4 144.8,140.2 				"/>
				<polyline class="st0" points="84.8,168.3 90.9,174.4 93.4,174.4 113,154.8 113,152.4 100.7,140.2 				"/>
				<line class="st0" x1="153.3" y1="165.9" x2="155.8" y2="163.4"/>
				<line class="st0" x1="89.7" y1="163.4" x2="92.2" y2="165.9"/>
			</g>
			<path class="st0" d="M117.9,189.1"/>
			<path class="st0" d="M115.4,191.5"/>
		</g>
	</g>
</g>
<g>
	<g>
		<g>
			<line class="st0" x1="425.1" y1="331.8" x2="425.1" y2="337.9"/>
			<line class="st0" x1="392.1" y1="348.9" x2="394.6" y2="348.9"/>
			<line class="st0" x1="397" y1="348.9" x2="399.4" y2="348.9"/>
			<line class="st0" x1="401.9" y1="348.9" x2="404.3" y2="348.9"/>
			<line class="st0" x1="419" y1="348.9" x2="421.5" y2="348.9"/>
			<line class="st0" x1="423.9" y1="348.9" x2="426.4" y2="348.9"/>
			<line class="st0" x1="428.8" y1="348.9" x2="431.2" y2="348.9"/>
			<line class="st0" x1="445.9" y1="348.9" x2="448.4" y2="348.9"/>
			<line class="st0" x1="450.8" y1="348.9" x2="453.3" y2="348.9"/>
			<line class="st0" x1="455.7" y1="348.9" x2="458.1" y2="348.9"/>
			<path class="st0" d="M450.8,289v-4.9h-34.2l-3.7-3.7h-18.3v40.4c0,2,1.6,3.7,3.7,3.7c2,0,3.7-1.6,3.7-3.7V289h53.8v35.5h-57.5"/>
			<g>
				<polygon class="st0" points="409.2,356.2 387.2,356.2 387.2,339.1 393.3,339.1 395.8,341.6 409.2,341.6 				"/>
			</g>
			<g>
				<polygon class="st0" points="436.1,356.2 414.1,356.2 414.1,339.1 420.2,339.1 422.7,341.6 436.1,341.6 				"/>
			</g>
			<g>
				<polygon class="st0" points="463,356.2 441,356.2 441,339.1 447.1,339.1 449.6,341.6 463,341.6 				"/>
			</g>
			<polyline class="st0" points="398.2,337.9 398.2,331.8 452,331.8 452,337.9 			"/>
			<path class="st0" d="M420.2,317.1V311c1.7,2.9,4.9,4.9,8.6,4.9c5.4,0,9.8-4.4,9.8-9.8"/>
			<path class="st0" d="M437.4,295.1v6.1c-1.7-2.9-4.9-4.9-8.6-4.9c-5.4,0-9.8,4.4-9.8,9.8"/>
			<line class="st0" x1="420.2" y1="311" x2="425.1" y2="311"/>
			<line class="st0" x1="437.4" y1="301.2" x2="432.5" y2="301.2"/>
			<line class="st0" x1="411.7" y1="324.4" x2="411.7" y2="331.8"/>
			<line class="st0" x1="438.6" y1="324.4" x2="438.6" y2="331.8"/>
		</g>
	</g>
</g>
<path class="st4" d="M296.7,93.9c0,0-2.6-14.1,10.7-14.1s121.4,0,121.4,0s10.8-0.6,10.8,10.8s0,11.4,0,11.4"/>
<path class="st4" d="M430,235.3h96.7c0,0,12.1-0.4,12.1-12.1c0-11.7,0-9.2,0-9.2s0.6-9.7-9.7-9.7s-72.8,0-72.8,0s-6.8-2.4-6.8-6.8
	c0-4.4,0-11,0-11"/>
<path class="st4" d="M475.3,240.4c0,0,9.4,0.9,9.4,9.4c0,8.5,0,52.6,0,52.6s1.1,9.5-9.5,9.5s-13.3,0-13.3,0"/>
<path class="st5" d="M302.8,243.5L302.8,243.5c-4.8-0.3-8.4-4.3-8.2-9v-17.9h7.7c1,0,1.9-0.8,1.9-1.9c0-1-0.8-1.9-1.9-1.9l0,0h-7.7
	V200c0-1-0.8-1.9-1.8-1.9s-1.9,0.8-1.9,1.8v0.1v12.8h-8.8c-1,0-1.9,0.8-1.9,1.9c0,1,0.8,1.9,1.9,1.9h8.8v17.9
	c-0.2,6.7,5,12.4,11.8,12.7h0.1c1,0,1.9-0.8,1.9-1.9C304.7,244.3,303.8,243.5,302.8,243.5L302.8,243.5L302.8,243.5L302.8,243.5z"/>
<rect x="274.6" y="241.6" class="st6" width="5.6" height="5.6"/>
<path class="st4" d="M296.5,95.4v18.9c0,0,0.9,7.8-7.8,7.8s-14.1,0-14.1,0"/>
<path class="st4" d="M196.7,119.2h-29.5c0,0-9.3,0.2-9.3,9.3c0,9.1,0,22,0,22"/>
<path class="st7" d="M102.5,324.5H70.3c0,0-8.6-0.5-8.6-8.6c0-8.1,0-59.4,0-59.4s0.3-7.6,7.6-7.6s111,0,111,0s9.6-1.1,9.6-9.6
	s0-9.5,0-9.5s0-8.3-8.3-8.3c-8.3,0-89.4,0-89.4,0s-8-2.1-8-8s0-33.5,0-33.5"/>
</svg>
