<?xml version="1.0" encoding="utf-8"?>
<!-- Generator: Adobe Illustrator 21.0.0, SVG Export Plug-In . SVG Version: 6.00 Build 0)  -->
<svg version="1.1" id="Layer_1" xmlns="http://www.w3.org/2000/svg" xmlns:xlink="http://www.w3.org/1999/xlink" x="0px" y="0px"
	 viewBox="0 0 25 25" style="enable-background:new 0 0 25 25;" xml:space="preserve">
<style type="text/css">
	.st0{fill:none;stroke:#222829;stroke-miterlimit:10;}
	.st1{fill:none;stroke:#222829;stroke-linejoin:bevel;stroke-miterlimit:10;}
	.st2{fill:none;stroke:#222829;stroke-linejoin:round;stroke-miterlimit:10;}
</style>
<g>
	<line class="st0" x1="11.3" y1="22.7" x2="8" y2="22.7"/>
	<line class="st0" x1="17" y1="22.7" x2="12.1" y2="22.7"/>
	<line class="st0" x1="12.1" y1="21.1" x2="17" y2="21.1"/>
	<line class="st0" x1="8" y1="21.1" x2="11.3" y2="21.1"/>
	<polyline class="st1" points="7.6,16.2 7.6,16.2 8.4,19.4 16.6,19.4 17.4,16.2 	"/>
	<path class="st2" d="M8.8,17c-2.9-1.4-4.9-4.3-4.9-7.7c0-4.7,3.8-8.6,8.6-8.6c4.7,0,8.6,3.8,8.6,8.6c0,3.4-2,6.4-4.9,7.7"/>
	<polyline class="st0" points="11.3,24.3 9.2,24.3 9.2,19.4 	"/>
	<polyline class="st0" points="12.1,24.3 15.8,24.3 15.8,19.4 	"/>
	<line class="st0" x1="12.1" y1="11.8" x2="10.9" y2="11.8"/>
	<line class="st0" x1="13.3" y1="6.9" x2="14.5" y2="6.9"/>
	<line class="st0" x1="13.3" y1="9.4" x2="14.5" y2="9.4"/>
	<line class="st0" x1="10.9" y1="9.4" x2="12.1" y2="9.4"/>
	<line class="st0" x1="15.8" y1="6.9" x2="17" y2="6.9"/>
	<line class="st0" x1="8.4" y1="11.8" x2="9.6" y2="11.8"/>
</g>
</svg>
