<?xml version="1.0" encoding="utf-8"?>
<!-- Generator: Adobe Illustrator 21.0.0, SVG Export Plug-In . SVG Version: 6.00 Build 0)  -->
<svg version="1.1" id="Layer_1" xmlns="http://www.w3.org/2000/svg" xmlns:xlink="http://www.w3.org/1999/xlink" x="0px" y="0px"
	 viewBox="0 0 25 25" style="enable-background:new 0 0 25 25;" xml:space="preserve">
<style type="text/css">
	.st0{fill:none;stroke:#222829;stroke-linejoin:round;stroke-miterlimit:10;}
</style>
<g>
	<g>
		<g>
			<path class="st0" d="M15.7,20.6H3c-1,0-1.9-0.8-1.9-1.9c0-1,0.8-1.9,1.9-1.9h12.7c1,0,1.9,0.8,1.9,1.9
				C17.5,19.8,16.7,20.6,15.7,20.6z"/>
			<polyline class="st0" points="2.6,16.9 2.6,15.4 4.5,15.4 			"/>
			<polyline class="st0" points="3.4,15.4 3.4,13.2 7.8,13.2 7.8,15.4 16,15.4 16,16.9 			"/>
			<path class="st0" d="M6.4,7.2v6h1.5v2.2h6.7v-4.8c0-1.8-1.5-3.3-3.3-3.3H6.4z"/>
			<path class="st0" d="M11.2,9.1c0.8,0,1.5,0.7,1.5,1.5"/>
			<line class="st0" x1="7.5" y1="8.7" x2="6.4" y2="8.7"/>
			<line class="st0" x1="7.5" y1="10.2" x2="6.4" y2="10.2"/>
			<line class="st0" x1="7.5" y1="11.7" x2="6.4" y2="11.7"/>
			<polyline class="st0" points="23.1,13.9 17.9,5 14.5,10.2 			"/>
			<path class="st0" d="M24.2,13.9H19l-1.1-1.1h-0.4c0,1.8,1.5,4.1,3.3,4.1C22.7,16.9,24.2,15.8,24.2,13.9v-1.1L18.6,1.3h-1.5l-6,6"
				/>
			<path class="st0" d="M14.5,13.2h-3.7c-0.8,0-1.5-0.7-1.5-1.5V7.2"/>
			<polyline class="st0" points="0.8,23.2 2.3,23.2 4.9,20.6 16.8,20.6 19,22.8 			"/>
			<path class="st0" d="M9.3,22.1"/>
			<path class="st0" d="M5.6,22.1"/>
		</g>
	</g>
</g>
</svg>
