<?xml version="1.0" encoding="utf-8"?>
<!-- Generator: Adobe Illustrator 21.0.0, SVG Export Plug-In . SVG Version: 6.00 Build 0)  -->
<svg version="1.1" id="Layer_1" xmlns="http://www.w3.org/2000/svg" xmlns:xlink="http://www.w3.org/1999/xlink" x="0px" y="0px"
	 viewBox="0 0 25 25" style="enable-background:new 0 0 25 25;" xml:space="preserve">
<style type="text/css">
	.st0{fill:#222829;}
	.st1{fill:none;stroke:#222829;stroke-width:2;stroke-miterlimit:10;}
	.st2{fill:none;stroke:#222829;stroke-miterlimit:10;}
</style>
<rect class="st0" width="4.2" height="4.2"/>
<rect x="20.8" class="st0" width="4.2" height="4.2"/>
<rect y="20.8" class="st0" width="4.2" height="4.2"/>
<rect x="20.8" y="20.8" class="st0" width="4.2" height="4.2"/>
<line class="st1" x1="7.3" y1="2.1" x2="9.4" y2="2.1"/>
<line class="st1" x1="11.5" y1="2.1" x2="13.5" y2="2.1"/>
<line class="st1" x1="15.6" y1="2.1" x2="17.7" y2="2.1"/>
<line class="st1" x1="7.3" y1="22.9" x2="9.4" y2="22.9"/>
<line class="st1" x1="11.5" y1="22.9" x2="13.5" y2="22.9"/>
<line class="st1" x1="15.6" y1="22.9" x2="17.7" y2="22.9"/>
<g>
	<line class="st1" x1="2.1" y1="7.3" x2="2.1" y2="9.4"/>
	<line class="st1" x1="2.1" y1="11.5" x2="2.1" y2="13.5"/>
	<line class="st1" x1="2.1" y1="15.6" x2="2.1" y2="17.7"/>
</g>
<g>
	<line class="st1" x1="22.9" y1="7.3" x2="22.9" y2="9.4"/>
	<line class="st1" x1="22.9" y1="11.5" x2="22.9" y2="13.5"/>
	<line class="st1" x1="22.9" y1="15.6" x2="22.9" y2="17.7"/>
</g>
<circle class="st2" cx="12.5" cy="12.5" r="6.2"/>
</svg>
