<?xml version="1.0" encoding="utf-8"?>
<!-- Generator: Adobe Illustrator 21.0.0, SVG Export Plug-In . SVG Version: 6.00 Build 0)  -->
<svg version="1.1" id="Layer_1" xmlns="http://www.w3.org/2000/svg" xmlns:xlink="http://www.w3.org/1999/xlink" x="0px" y="0px"
	 viewBox="0 0 25 25" style="enable-background:new 0 0 25 25;" xml:space="preserve">
<style type="text/css">
	.st0{fill:none;stroke:#222829;stroke-miterlimit:10;}
</style>
<g>
	<path class="st0" d="M6.4,3.4V1.6C6.4,1,7,0.5,7.6,0.5h11.7c0.6,0,1.2,0.5,1.2,1.2v22.2c0,0.6-0.5,1.2-1.2,1.2H7.6
		c-0.6,0-1.2-0.5-1.2-1.2v-21"/>
	<line class="st0" x1="14.6" y1="22.7" x2="12.3" y2="22.7"/>
</g>
<line class="st0" x1="6.4" y1="20.3" x2="20.5" y2="20.3"/>
<line class="st0" x1="15.2" y1="15.7" x2="16.4" y2="15.7"/>
<line class="st0" x1="17.5" y1="15.7" x2="18.7" y2="15.7"/>
<line class="st0" x1="15.2" y1="13.3" x2="16.4" y2="13.3"/>
<line class="st0" x1="17.5" y1="13.3" x2="18.7" y2="13.3"/>
<line class="st0" x1="12.9" y1="13.3" x2="14" y2="13.3"/>
<line class="st0" x1="8.2" y1="15.7" x2="9.3" y2="15.7"/>
<line class="st0" x1="10.5" y1="15.7" x2="11.7" y2="15.7"/>
<line class="st0" x1="12.9" y1="15.7" x2="14" y2="15.7"/>
<line class="st0" x1="15.2" y1="18" x2="16.4" y2="18"/>
<line class="st0" x1="17.5" y1="18" x2="18.7" y2="18"/>
<line class="st0" x1="8.2" y1="18" x2="9.3" y2="18"/>
<line class="st0" x1="10.5" y1="18" x2="11.7" y2="18"/>
<line class="st0" x1="12.9" y1="18" x2="14" y2="18"/>
</svg>
