<?xml version="1.0" encoding="utf-8"?>
<!-- Generator: Adobe Illustrator 21.0.0, SVG Export Plug-In . SVG Version: 6.00 Build 0)  -->
<svg version="1.1" id="Layer_1" xmlns="http://www.w3.org/2000/svg" xmlns:xlink="http://www.w3.org/1999/xlink" x="0px" y="0px"
	 viewBox="0 0 25 25" style="enable-background:new 0 0 25 25;" xml:space="preserve">
<style type="text/css">
	.st0{fill:none;stroke:#222829;stroke-miterlimit:10;}
</style>
<polyline class="st0" points="24.3,10 24.3,3.3 0.7,3.3 0.7,13.1 "/>
<path class="st0" d="M19.7,12c1.1-0.5,3.9-0.5,4.6-0.5v11.3H0.7v-8.2c7.9,0,14.9,4.6,16.9,8.2"/>
<path class="st0" d="M9.4,16.2c1.9-1.9,5.1-3.1,6.2-3.1"/>
<circle class="st0" cx="6.9" cy="9.5" r="2"/>
<path class="st0" d="M19.7,13.1c0,1.5-0.5,2-2,2s-2-0.5-2-2c0-1.7,2-5.6,2-5.6S19.7,11.4,19.7,13.1z"/>
<line class="st0" x1="17.6" y1="12.6" x2="17.6" y2="17.7"/>
</svg>
