<?xml version="1.0" encoding="utf-8"?>
<!-- Generator: Adobe Illustrator 21.0.0, SVG Export Plug-In . SVG Version: 6.00 Build 0)  -->
<svg version="1.1" id="Layer_1" xmlns="http://www.w3.org/2000/svg" xmlns:xlink="http://www.w3.org/1999/xlink" x="0px" y="0px"
	 viewBox="0 0 25 25" style="enable-background:new 0 0 25 25;" xml:space="preserve">
<style type="text/css">
	.st0{fill:none;stroke:#222829;stroke-linejoin:round;stroke-miterlimit:10;}
</style>
<g>
	<g>
		<g>
			<line class="st0" x1="12.5" y1="16.7" x2="12.5" y2="23.5"/>
			<polyline class="st0" points="16.3,16.7 18.6,23.1 18.6,23.5 			"/>
			<polyline class="st0" points="8.7,16.7 6.4,23.1 6.4,23.5 			"/>
			<polyline class="st0" points="22.7,5.7 22.7,16.7 2.3,16.7 2.3,5.7 			"/>
			<polygon class="st0" points="0.7,4.5 0.7,3 9.8,3 10.6,1.5 14.4,1.5 15.2,3 24.3,3 24.3,4.5 			"/>
			<line class="st0" x1="11.4" y1="3" x2="13.6" y2="3"/>
			<line class="st0" x1="0.4" y1="23.5" x2="24.6" y2="23.5"/>
			<circle class="st0" cx="10.2" cy="7.9" r="0.4"/>
			<circle class="st0" cx="14" cy="13.3" r="0.4"/>
			<path class="st0" d="M12.1,8.7V7.9c0-1-0.8-1.9-1.9-1.9c-1,0-1.9,0.8-1.9,1.9v2.3c0,1-0.8,1.9-1.9,1.9H4.2"/>
			<path class="st0" d="M20.8,9.1h-3c-1,0-1.9,0.8-1.9,1.9v2.3c0,1-0.8,1.9-1.9,1.9c-1,0-1.9-0.8-1.9-1.9v-0.8"/>
			<polyline class="st0" points="19.3,10.6 20.8,9.1 19.3,7.6 			"/>
			<line class="st0" x1="12.1" y1="9.5" x2="12.1" y2="10.2"/>
			<line class="st0" x1="12.1" y1="11" x2="12.1" y2="11.7"/>
			<line class="st0" x1="3.4" y1="6" x2="4.2" y2="6"/>
			<line class="st0" x1="20.8" y1="6" x2="21.6" y2="6"/>
			<line class="st0" x1="20.8" y1="15.2" x2="21.6" y2="15.2"/>
			<line class="st0" x1="3.4" y1="15.2" x2="4.2" y2="15.2"/>
		</g>
	</g>
</g>
</svg>
