<?xml version="1.0" encoding="utf-8"?>
<!-- Generator: Adobe Illustrator 21.0.0, SVG Export Plug-In . SVG Version: 6.00 Build 0)  -->
<svg version="1.1" id="Layer_1" xmlns="http://www.w3.org/2000/svg" xmlns:xlink="http://www.w3.org/1999/xlink" x="0px" y="0px"
	 viewBox="0 0 25 25" style="enable-background:new 0 0 25 25;" xml:space="preserve">
<style type="text/css">
	.st0{fill:none;stroke:#222829;stroke-miterlimit:10;}
	.st1{fill:none;stroke:#222829;stroke-linejoin:round;stroke-miterlimit:10;}
</style>
<g>
	<g>
		<g>
			<polyline class="st0" points="4.8,21.3 0.6,21.3 0.6,0.6 24.4,0.6 24.4,21.3 20.2,21.3 			"/>
			<line class="st0" x1="0.6" y1="3.7" x2="24.4" y2="3.7"/>
			<line class="st0" x1="1.8" y1="2.2" x2="2.6" y2="2.2"/>
			<line class="st0" x1="3.3" y1="2.2" x2="4.1" y2="2.2"/>
			<line class="st0" x1="4.8" y1="2.2" x2="5.6" y2="2.2"/>
			<line class="st0" x1="6.8" y1="0.6" x2="6.8" y2="3.7"/>
		</g>
		<path class="st1" d="M18.7,14.4l-2.1,0.1l0.7-2c-0.5-0.4-1-0.8-1.6-1.1l-1.7,1.3l-0.6-2c-0.3,0-0.6-0.1-1-0.1c-0.3,0-0.7,0-1,0.1
			l-0.6,2l-1.7-1.3c-0.6,0.3-1.1,0.7-1.6,1.1l0.7,2l-2.1-0.1C6,15,5.8,15.6,5.7,16.3l1.7,1.2l-1.7,1.2c0.1,0.7,0.3,1.3,0.6,1.8
			l2.1-0.1l-0.7,2c0.5,0.4,1,0.8,1.6,1.1l1.7-1.3l0.6,2c0.3,0,0.6,0.1,1,0.1c0.3,0,0.7,0,1-0.1l0.6-2l1.7,1.3
			c0.6-0.3,1.1-0.7,1.6-1.1l-0.7-2l2.1,0.1c0.3-0.6,0.5-1.2,0.6-1.8l-1.7-1.2l1.7-1.2C19.2,15.6,19,15,18.7,14.4z"/>
		<circle class="st0" cx="12.5" cy="17.5" r="3.4"/>
		<circle class="st0" cx="12.5" cy="17.5" r="1.9"/>
	</g>
</g>
</svg>
