<?xml version="1.0" encoding="utf-8"?>
<!-- Generator: Adobe Illustrator 21.0.0, SVG Export Plug-In . SVG Version: 6.00 Build 0)  -->
<svg version="1.1" id="Layer_1" xmlns="http://www.w3.org/2000/svg" xmlns:xlink="http://www.w3.org/1999/xlink" x="0px" y="0px"
	 viewBox="0 0 25 25" style="enable-background:new 0 0 25 25;" xml:space="preserve">
<style type="text/css">
	.st0{fill:none;stroke:#222829;stroke-miterlimit:10;}
	.st1{fill:none;stroke:#222829;stroke-linecap:round;stroke-miterlimit:10;}
	.st2{fill:none;stroke:#222829;stroke-linejoin:round;stroke-miterlimit:10;}
</style>
<g>
	<g>
		<g>
			<line class="st0" x1="20.1" y1="9.1" x2="18.6" y2="9.1"/>
			<path class="st1" d="M7.6,14.4"/>
			<path class="st0" d="M21.2,4.5c1,0,1.9-0.8,1.9-1.9c0-1-0.8-1.9-1.9-1.9H9.5"/>
			<g>
				<polyline class="st0" points="18.6,15.5 19.3,16.3 21.2,16.3 				"/>
			</g>
			<line class="st0" x1="17.4" y1="19.7" x2="16.3" y2="19.7"/>
			<path class="st0" d="M13.3,18.2"/>
			<path class="st0" d="M4.1,18.2"/>
			<path class="st0" d="M13.3,19.7"/>
			<path class="st0" d="M4.1,19.7"/>
			<path class="st0" d="M13.3,21.2"/>
			<path class="st0" d="M4.1,21.2"/>
			<line class="st0" x1="4.1" y1="22.8" x2="13.3" y2="22.8"/>
			<polyline class="st0" points="9.8,22.8 9.8,24.3 7.6,24.3 7.6,22.8 			"/>
			<path class="st0" d="M8.7,0.7c-4,0-7.2,3.2-7.2,7.2c0,2.8,1.5,5.2,3.8,6.5v8.4"/>
			<path class="st0" d="M20.9,4.5h0.4v3l2.3,5.7V14h-2.3v3.4c0,1.3-1,2.3-2.3,2.3h-1.5v3.4"/>
			<path class="st0" d="M12.1,22.8v-8.4c2.3-1.2,3.8-3.7,3.8-6.5c0-1.6-0.8-3.4-0.8-3.4h4.9"/>
			<path class="st0" d="M7.6,14.4"/>
			<path class="st0" d="M7.6,18.2"/>
			<polyline class="st2" points="12.2,4.5 7.2,9.5 4.8,7 			"/>
		</g>
	</g>
</g>
</svg>
