<?xml version="1.0" encoding="utf-8"?>
<!-- Generator: Adobe Illustrator 21.0.0, SVG Export Plug-In . SVG Version: 6.00 Build 0)  -->
<svg version="1.1" id="Layer_1" xmlns="http://www.w3.org/2000/svg" xmlns:xlink="http://www.w3.org/1999/xlink" x="0px" y="0px"
	 viewBox="0 0 25 25" style="enable-background:new 0 0 25 25;" xml:space="preserve">
<style type="text/css">
	.st0{fill:none;stroke:#222829;stroke-linejoin:round;stroke-miterlimit:10;}
</style>
<path class="st0" d="M22.2,8.8c0-4.1-3.3-7.3-7.3-7.3V3l-4.4-1.5c-4.1,0-7.3,3.3-7.3,7.3"/>
<path class="st0" d="M6.1,11v2.2c0,5.3,2.2,10.3,6.6,10.3s6.6-5,6.6-10.3V11c0-1.2-1-2.2-2.2-2.2h-4.4L8.3,6.6v2.2
	C7,8.8,6.1,9.8,6.1,11z"/>
<path class="st0" d="M5.3,17.6c-2.4,0-4.4-2-4.4-4.4s2-4.4,4.4-4.4"/>
<path class="st0" d="M20,17.6c2.4,0,4.4-2,4.4-4.4s-2-4.4-4.4-4.4"/>
<path class="st0" d="M22.9,16.9v2.2c0,0.8-0.7,1.5-1.5,1.5h-8.1c-0.8,0-1.5-0.7-1.5-1.5"/>
</svg>
