<?xml version="1.0" encoding="utf-8"?>
<!-- Generator: Adobe Illustrator 21.0.0, SVG Export Plug-In . SVG Version: 6.00 Build 0)  -->
<svg version="1.1" id="Layer_1" xmlns="http://www.w3.org/2000/svg" xmlns:xlink="http://www.w3.org/1999/xlink" x="0px" y="0px"
	 viewBox="0 0 25 25" style="enable-background:new 0 0 25 25;" xml:space="preserve">
<style type="text/css">
	.st0{fill:none;stroke:#222829;stroke-miterlimit:10;}
</style>
<g>
	<line class="st0" x1="2.5" y1="14" x2="3.4" y2="14"/>
	<line class="st0" x1="4.2" y1="14" x2="5" y2="14"/>
	<line class="st0" x1="5.9" y1="14" x2="6.7" y2="14"/>
	<line class="st0" x1="7.5" y1="14" x2="8.4" y2="14"/>
	<line class="st0" x1="10" y1="14" x2="10.8" y2="14"/>
	<line class="st0" x1="2.5" y1="15.6" x2="8.4" y2="15.6"/>
	<line class="st0" x1="9.2" y1="15.6" x2="10.8" y2="15.6"/>
	<path class="st0" d="M13.8,18.1H0.9c-0.2,0-0.4-0.2-0.4-0.4V4.4C0.5,4.2,0.6,4,0.9,4h23.3c0.2,0,0.4,0.2,0.4,0.4v12.5"/>
	<g>
		<line class="st0" x1="4.6" y1="8.1" x2="6.3" y2="8.1"/>
		<line class="st0" x1="6.3" y1="9.8" x2="4.6" y2="9.8"/>
	</g>
	<line class="st0" x1="22.5" y1="6.5" x2="21.6" y2="6.5"/>
	<polyline class="st0" points="3.4,7.3 4.6,7.3 4.6,10.6 3.4,10.6 	"/>
	<polyline class="st0" points="7.5,7.3 6.3,7.3 6.3,10.6 7.5,10.6 	"/>
	<line class="st0" x1="3.4" y1="9" x2="4.6" y2="9"/>
	<line class="st0" x1="6.3" y1="9" x2="7.5" y2="9"/>
	<line class="st0" x1="8.4" y1="7.3" x2="9.2" y2="7.3"/>
	<circle class="st0" cx="20" cy="16.4" r="4.6"/>
	<line class="st0" x1="18.3" y1="18.1" x2="21.6" y2="14.8"/>
	<line class="st0" x1="18.3" y1="14.8" x2="21.6" y2="18.1"/>
</g>
</svg>
