<?xml version="1.0" encoding="utf-8"?>
<!-- Generator: Adobe Illustrator 21.0.0, SVG Export Plug-In . SVG Version: 6.00 Build 0)  -->
<svg version="1.1" id="Layer_1" xmlns="http://www.w3.org/2000/svg" xmlns:xlink="http://www.w3.org/1999/xlink" x="0px" y="0px"
	 viewBox="0 0 25 25" style="enable-background:new 0 0 25 25;" xml:space="preserve">
<style type="text/css">
	.st0{fill:none;stroke:#222829;stroke-miterlimit:10;}
</style>
<path class="st0" d="M5.2,11.3v2.4c0,5.8,2.4,10.5,7.3,10.5s7.3-4.7,7.3-10.5v-2.4c0-1.3-1.1-2.4-2.4-2.4h-4.9L9.3,6.4H7.6v2.4
	C6.3,8.8,5.2,9.9,5.2,11.3z"/>
<path class="st0" d="M19.8,11.3h0.8c0.9,0,1.6,0.7,1.6,1.6v1.6c0,1.3-1.1,2.4-2.4,2.4"/>
<path class="st0" d="M5.2,11.3H4.4c-0.9,0-1.6,0.7-1.6,1.6v1.6c0,1.3,1.1,2.4,2.4,2.4"/>
<line class="st0" x1="14.1" y1="20.2" x2="19" y2="17.8"/>
<path class="st0" d="M21.4,11.3V8c0-4-3.3-7.3-7.3-7.3h-3.2C6.8,0.7,3.6,4,3.6,8"/>
</svg>
