<svg id="Layer_1" data-name="Layer 1" xmlns="http://www.w3.org/2000/svg" viewBox="0 0 600 600"><defs><style>.cls-1{fill:#c1c1c1;}.cls-2{fill:#f76b11;}.cls-3{fill:#fff;}.cls-3,.cls-4{stroke:#f76b11;stroke-miterlimit:10;stroke-width:5px;}.cls-4{fill:none;}</style></defs><title>TypeofC-01</title><rect class="cls-1" x="480.63" y="484.63" width="13.75" height="13.75" transform="translate(-4 979) rotate(-90)"/><rect class="cls-1" x="480.63" y="421.63" width="13.75" height="13.75" transform="translate(59 916) rotate(-90)"/><rect class="cls-1" x="480.63" y="379.63" width="13.75" height="13.75" transform="translate(101 874) rotate(-90)"/><rect class="cls-1" x="502.88" y="463.63" width="13.75" height="13.75" transform="translate(39.25 980.25) rotate(-90)"/><rect class="cls-1" x="502.88" y="442.63" width="13.75" height="13.75" transform="translate(60.25 959.25) rotate(-90)"/><rect class="cls-1" x="502.88" y="421.63" width="13.75" height="13.75" transform="translate(81.25 938.25) rotate(-90)"/><rect class="cls-1" x="502.88" y="379.63" width="13.75" height="13.75" transform="translate(123.25 896.25) rotate(-90)"/><rect class="cls-1" x="522.63" y="505.63" width="13.75" height="13.75" transform="translate(17 1042) rotate(-90)"/><rect class="cls-1" x="522.63" y="379.63" width="13.75" height="13.75" transform="translate(143 916) rotate(-90)"/><rect class="cls-2" x="76.82" y="471.22" width="13.75" height="13.75"/><rect class="cls-2" x="139.82" y="471.22" width="13.75" height="13.75"/><rect class="cls-2" x="181.82" y="471.22" width="13.75" height="13.75"/><rect class="cls-2" x="97.82" y="493.47" width="13.75" height="13.75"/><rect class="cls-2" x="118.82" y="493.47" width="13.75" height="13.75"/><rect class="cls-2" x="139.82" y="493.47" width="13.75" height="13.75"/><rect class="cls-2" x="181.82" y="493.47" width="13.75" height="13.75"/><rect class="cls-2" x="55.82" y="513.22" width="13.75" height="13.75"/><rect class="cls-2" x="181.82" y="513.22" width="13.75" height="13.75"/><rect class="cls-2" x="501.63" y="141.61" width="13.75" height="13.75" transform="translate(1017 296.96) rotate(180)"/><rect class="cls-2" x="438.63" y="141.61" width="13.75" height="13.75" transform="translate(891 296.96) rotate(180)"/><rect class="cls-2" x="396.63" y="141.61" width="13.75" height="13.75" transform="translate(807 296.96) rotate(180)"/><rect class="cls-2" x="480.63" y="119.36" width="13.75" height="13.75" transform="translate(975 252.46) rotate(180)"/><rect class="cls-2" x="459.63" y="119.36" width="13.75" height="13.75" transform="translate(933 252.46) rotate(180)"/><rect class="cls-2" x="438.63" y="119.36" width="13.75" height="13.75" transform="translate(891 252.46) rotate(180)"/><rect class="cls-2" x="396.63" y="119.36" width="13.75" height="13.75" transform="translate(807 252.46) rotate(180)"/><rect class="cls-2" x="522.63" y="99.61" width="13.75" height="13.75" transform="translate(1059 212.96) rotate(180)"/><rect class="cls-2" x="396.63" y="99.61" width="13.75" height="13.75" transform="translate(807 212.96) rotate(180)"/><circle class="cls-3" cx="307.09" cy="297.34" r="220"/><g id="_55_digital_wallet" data-name="55_digital_wallet"><polyline class="cls-4" points="319.06 269.9 319.06 301.86 304.85 316.07 304.85 340.94"/><line class="cls-4" x1="333.26" y1="419.08" x2="333.26" y2="312.52"/><line class="cls-4" x1="304.85" y1="316.07" x2="304.85" y2="284.1"/><line class="cls-4" x1="269.33" y1="419.08" x2="269.33" y2="333.83"/><line class="cls-4" x1="255.12" y1="340.94" x2="255.12" y2="333.83"/><line class="cls-4" x1="240.91" y1="340.94" x2="240.91" y2="333.83"/><line class="cls-4" x1="283.54" y1="305.42" x2="283.54" y2="298.31"/><line class="cls-4" x1="319.06" y1="262.79" x2="319.06" y2="255.69"/><line class="cls-4" x1="333.26" y1="305.42" x2="333.26" y2="298.31"/><line class="cls-4" x1="333.26" y1="291.21" x2="333.26" y2="284.1"/><path class="cls-4" d="M198.29,248.58V369.35A10.47,10.47,0,0,0,208.94,380h85.25"/><path class="cls-4" d="M212.5,216.62h-3.55a10.66,10.66,0,0,0,0,21.31H404.3V369.35"/><line class="cls-4" x1="269.33" y1="308.97" x2="237.36" y2="308.97"/><line class="cls-4" x1="269.33" y1="308.97" x2="269.33" y2="269.9"/><line class="cls-4" x1="258.67" y1="280.55" x2="251.57" y2="280.55"/><line class="cls-4" x1="258.67" y1="294.76" x2="251.57" y2="294.76"/><line class="cls-4" x1="319.06" y1="369.35" x2="319.06" y2="362.25"/><line class="cls-4" x1="319.06" y1="355.14" x2="319.06" y2="348.04"/><line class="cls-4" x1="319.06" y1="340.94" x2="319.06" y2="333.83"/><rect class="cls-4" x="283.54" y="209.51" width="134.98" height="14.21"/><polyline class="cls-4" points="382.99 209.51 382.99 195.3 212.5 195.3 212.5 223.72 272.88 223.72"/><line class="cls-4" x1="223.15" y1="209.51" x2="230.26" y2="209.51"/><line class="cls-4" x1="237.36" y1="209.51" x2="244.46" y2="209.51"/><line class="cls-4" x1="251.57" y1="209.51" x2="258.67" y2="209.51"/><polyline class="cls-4" points="283.54 419.08 283.54 351.59 290.64 351.59 304.85 365.8 304.85 404.87"/><line class="cls-4" x1="304.85" y1="411.98" x2="304.85" y2="419.08"/><polyline class="cls-4" points="418.51 234.38 418.51 380.01 315.5 380.01"/><polyline class="cls-4" points="333.26 344.49 347.47 330.28 347.47 277"/><path class="cls-4" d="M418.51,351.59H390.1a7.12,7.12,0,0,1-7.1-7.1V326.73"/><path class="cls-4" d="M418.51,266.34H390.1a7.12,7.12,0,0,0-7.1,7.1v46.18"/><line class="cls-4" x1="269.33" y1="351.59" x2="251.57" y2="351.59"/><line class="cls-4" x1="212.5" y1="369.35" x2="212.5" y2="262.79"/><line class="cls-4" x1="212.5" y1="255.69" x2="212.5" y2="248.58"/><line class="cls-4" x1="347.47" y1="330.28" x2="365.23" y2="330.28"/><line class="cls-4" x1="358.13" y1="316.07" x2="365.23" y2="316.07"/><polyline class="cls-4" points="283.54 340.94 283.54 323.18 269.33 308.97"/></g></svg>