<svg id="Layer_1" data-name="Layer 1" xmlns="http://www.w3.org/2000/svg" viewBox="0 0 600 600"><defs><style>.cls-1{fill:#c1c1c1;}.cls-2{fill:#f76b11;}.cls-3{fill:#fff;}.cls-3,.cls-4{stroke:#f76b11;stroke-miterlimit:10;stroke-width:5px;}.cls-4{fill:none;}</style></defs><title>TypeofC-02</title><rect class="cls-1" x="480.63" y="484.63" width="13.75" height="13.75" transform="translate(-4 979) rotate(-90)"/><rect class="cls-1" x="480.63" y="421.63" width="13.75" height="13.75" transform="translate(59 916) rotate(-90)"/><rect class="cls-1" x="480.63" y="379.63" width="13.75" height="13.75" transform="translate(101 874) rotate(-90)"/><rect class="cls-1" x="502.88" y="463.63" width="13.75" height="13.75" transform="translate(39.25 980.25) rotate(-90)"/><rect class="cls-1" x="502.88" y="442.63" width="13.75" height="13.75" transform="translate(60.25 959.25) rotate(-90)"/><rect class="cls-1" x="502.88" y="421.63" width="13.75" height="13.75" transform="translate(81.25 938.25) rotate(-90)"/><rect class="cls-1" x="502.88" y="379.63" width="13.75" height="13.75" transform="translate(123.25 896.25) rotate(-90)"/><rect class="cls-1" x="522.63" y="505.63" width="13.75" height="13.75" transform="translate(17 1042) rotate(-90)"/><rect class="cls-1" x="522.63" y="379.63" width="13.75" height="13.75" transform="translate(143 916) rotate(-90)"/><rect class="cls-2" x="76.82" y="471.22" width="13.75" height="13.75"/><rect class="cls-2" x="139.82" y="471.22" width="13.75" height="13.75"/><rect class="cls-2" x="181.82" y="471.22" width="13.75" height="13.75"/><rect class="cls-2" x="97.82" y="493.47" width="13.75" height="13.75"/><rect class="cls-2" x="118.82" y="493.47" width="13.75" height="13.75"/><rect class="cls-2" x="139.82" y="493.47" width="13.75" height="13.75"/><rect class="cls-2" x="181.82" y="493.47" width="13.75" height="13.75"/><rect class="cls-2" x="55.82" y="513.22" width="13.75" height="13.75"/><rect class="cls-2" x="181.82" y="513.22" width="13.75" height="13.75"/><rect class="cls-2" x="501.63" y="141.61" width="13.75" height="13.75" transform="translate(1017 296.96) rotate(180)"/><rect class="cls-2" x="438.63" y="141.61" width="13.75" height="13.75" transform="translate(891 296.96) rotate(180)"/><rect class="cls-2" x="396.63" y="141.61" width="13.75" height="13.75" transform="translate(807 296.96) rotate(180)"/><rect class="cls-2" x="480.63" y="119.36" width="13.75" height="13.75" transform="translate(975 252.46) rotate(180)"/><rect class="cls-2" x="459.63" y="119.36" width="13.75" height="13.75" transform="translate(933 252.46) rotate(180)"/><rect class="cls-2" x="438.63" y="119.36" width="13.75" height="13.75" transform="translate(891 252.46) rotate(180)"/><rect class="cls-2" x="396.63" y="119.36" width="13.75" height="13.75" transform="translate(807 252.46) rotate(180)"/><rect class="cls-2" x="522.63" y="99.61" width="13.75" height="13.75" transform="translate(1059 212.96) rotate(180)"/><rect class="cls-2" x="396.63" y="99.61" width="13.75" height="13.75" transform="translate(807 212.96) rotate(180)"/><circle class="cls-3" cx="307.09" cy="297.34" r="220"/><path class="cls-4" d="M232.24,299.44l-22.72,13v6.49c0,5.38,3.25,9.74,6.49,9.74h9.74"/><polyline class="cls-4" points="300.39 299.44 274.43 312.42 274.43 312.42 251.71 299.44"/><polyline class="cls-4" points="368.55 299.44 345.83 312.42 345.83 312.42 319.87 299.44"/><path class="cls-4" d="M394.51,328.65h9.74c3.25,0,6.49-4.36,6.49-9.74v-6.49l-22.72-13"/><path class="cls-4" d="M258.2,281.59c0,11.36-6.37,21.1-16.23,21.1s-16.23-9.74-16.23-21.1S229,263.74,242,263.74,258.2,270.23,258.2,281.59Z"/><path class="cls-4" d="M326.36,281.59c0,11.36-6.37,21.1-16.23,21.1s-16.23-9.74-16.23-21.1,3.25-17.85,16.23-17.85S326.36,270.23,326.36,281.59Z"/><path class="cls-4" d="M394.51,281.59c0,11.36-6.37,21.1-16.23,21.1s-16.23-9.74-16.23-21.1,3.25-17.85,16.23-17.85S394.51,270.23,394.51,281.59Z"/><line class="cls-4" x1="274.43" y1="312.42" x2="274.43" y2="322.16"/><line class="cls-4" x1="345.83" y1="312.42" x2="345.83" y2="322.16"/><path class="cls-4" d="M326.36,203.7c0,11.36-6.37,21.1-16.23,21.1s-16.23-9.74-16.23-21.1,3.25-17.85,16.23-17.85S326.36,192.34,326.36,203.7Z"/><path class="cls-4" d="M319.87,221.55l22.72,13V241c0,5.38-3.25,9.74-6.49,9.74H284.17c-3.25,0-6.49-4.36-6.49-9.74v-6.49l22.72-13"/><line class="cls-4" x1="241.98" y1="247.51" x2="241.98" y2="198.83"/><polyline class="cls-4" points="258.2 215.06 241.98 198.83 225.75 215.06"/><line class="cls-4" x1="378.28" y1="247.51" x2="378.28" y2="198.83"/><polyline class="cls-4" points="394.51 215.06 378.28 198.83 362.06 215.06"/><path class="cls-4" d="M388,357.85l22.72,13v6.49c0,5.38-3.25,9.74-6.49,9.74H216c-3.25,0-6.49-4.36-6.49-9.74v-6.49l22.72-13"/><polyline class="cls-4" points="319.87 357.85 345.83 370.84 345.83 370.84 368.55 357.85"/><polyline class="cls-4" points="251.71 357.85 274.43 370.84 274.43 370.84 300.39 357.85"/><path class="cls-4" d="M258.2,340c0,11.36-6.37,21.1-16.23,21.1s-16.23-9.74-16.23-21.1S229,322.16,242,322.16,258.2,328.65,258.2,340Z"/><path class="cls-4" d="M326.36,340c0,11.36-6.37,21.1-16.23,21.1S293.9,351.36,293.9,340s3.25-17.85,16.23-17.85S326.36,328.65,326.36,340Z"/><path class="cls-4" d="M394.51,340c0,11.36-6.37,21.1-16.23,21.1s-16.23-9.74-16.23-21.1,3.25-17.85,16.23-17.85S394.51,328.65,394.51,340Z"/><line class="cls-4" x1="274.43" y1="370.84" x2="274.43" y2="380.57"/><line class="cls-4" x1="345.83" y1="370.84" x2="345.83" y2="380.57"/></svg>