<svg id="Layer_1" data-name="Layer 1" xmlns="http://www.w3.org/2000/svg" viewBox="0 0 600 600"><defs><style>.cls-1{fill:#c1c1c1;}.cls-2{fill:#f76b11;}.cls-3{fill:#fff;}.cls-3,.cls-4{stroke:#f76b11;stroke-miterlimit:10;stroke-width:5px;}.cls-4{fill:none;}</style></defs><title>TypeofC-03</title><rect class="cls-1" x="480.63" y="484.63" width="13.75" height="13.75" transform="translate(-4 979) rotate(-90)"/><rect class="cls-1" x="480.63" y="421.63" width="13.75" height="13.75" transform="translate(59 916) rotate(-90)"/><rect class="cls-1" x="480.63" y="379.63" width="13.75" height="13.75" transform="translate(101 874) rotate(-90)"/><rect class="cls-1" x="502.88" y="463.63" width="13.75" height="13.75" transform="translate(39.25 980.25) rotate(-90)"/><rect class="cls-1" x="502.88" y="442.63" width="13.75" height="13.75" transform="translate(60.25 959.25) rotate(-90)"/><rect class="cls-1" x="502.88" y="421.63" width="13.75" height="13.75" transform="translate(81.25 938.25) rotate(-90)"/><rect class="cls-1" x="502.88" y="379.63" width="13.75" height="13.75" transform="translate(123.25 896.25) rotate(-90)"/><rect class="cls-1" x="522.63" y="505.63" width="13.75" height="13.75" transform="translate(17 1042) rotate(-90)"/><rect class="cls-1" x="522.63" y="379.63" width="13.75" height="13.75" transform="translate(143 916) rotate(-90)"/><rect class="cls-2" x="76.82" y="471.22" width="13.75" height="13.75"/><rect class="cls-2" x="139.82" y="471.22" width="13.75" height="13.75"/><rect class="cls-2" x="181.82" y="471.22" width="13.75" height="13.75"/><rect class="cls-2" x="97.82" y="493.47" width="13.75" height="13.75"/><rect class="cls-2" x="118.82" y="493.47" width="13.75" height="13.75"/><rect class="cls-2" x="139.82" y="493.47" width="13.75" height="13.75"/><rect class="cls-2" x="181.82" y="493.47" width="13.75" height="13.75"/><rect class="cls-2" x="55.82" y="513.22" width="13.75" height="13.75"/><rect class="cls-2" x="181.82" y="513.22" width="13.75" height="13.75"/><rect class="cls-2" x="501.63" y="141.61" width="13.75" height="13.75" transform="translate(1017 296.96) rotate(180)"/><rect class="cls-2" x="438.63" y="141.61" width="13.75" height="13.75" transform="translate(891 296.96) rotate(180)"/><rect class="cls-2" x="396.63" y="141.61" width="13.75" height="13.75" transform="translate(807 296.96) rotate(180)"/><rect class="cls-2" x="480.63" y="119.36" width="13.75" height="13.75" transform="translate(975 252.46) rotate(180)"/><rect class="cls-2" x="459.63" y="119.36" width="13.75" height="13.75" transform="translate(933 252.46) rotate(180)"/><rect class="cls-2" x="438.63" y="119.36" width="13.75" height="13.75" transform="translate(891 252.46) rotate(180)"/><rect class="cls-2" x="396.63" y="119.36" width="13.75" height="13.75" transform="translate(807 252.46) rotate(180)"/><rect class="cls-2" x="522.63" y="99.61" width="13.75" height="13.75" transform="translate(1059 212.96) rotate(180)"/><rect class="cls-2" x="396.63" y="99.61" width="13.75" height="13.75" transform="translate(807 212.96) rotate(180)"/><circle class="cls-3" cx="307.09" cy="297.34" r="220"/><path class="cls-4" d="M250.33,304.68H236.71a23.84,23.84,0,0,1-23.84-23.84"/><line class="cls-4" x1="359.3" y1="304.68" x2="277.57" y2="304.68"/><path class="cls-4" d="M424,280.85a23.84,23.84,0,0,1-23.84,23.84H386.54"/><line class="cls-4" x1="362.7" y1="372.78" x2="274.17" y2="372.78"/><line class="cls-4" x1="274.17" y1="222.96" x2="362.7" y2="222.96"/><rect class="cls-4" x="250.33" y="291.06" width="27.24" height="27.24"/><rect class="cls-4" x="359.3" y="291.06" width="27.24" height="27.24"/><line class="cls-4" x1="301.41" y1="291.06" x2="335.46" y2="291.06"/><line class="cls-4" x1="372.92" y1="318.3" x2="372.92" y2="301.28"/><line class="cls-4" x1="263.95" y1="318.3" x2="263.95" y2="301.28"/><line class="cls-4" x1="369.51" y1="263.82" x2="376.32" y2="263.82"/><line class="cls-4" x1="369.51" y1="277.44" x2="376.32" y2="277.44"/><line class="cls-4" x1="369.51" y1="331.92" x2="376.32" y2="331.92"/><line class="cls-4" x1="369.51" y1="345.54" x2="376.32" y2="345.54"/><line class="cls-4" x1="260.55" y1="263.82" x2="267.36" y2="263.82"/><line class="cls-4" x1="260.55" y1="277.44" x2="267.36" y2="277.44"/><line class="cls-4" x1="260.55" y1="331.92" x2="267.36" y2="331.92"/><line class="cls-4" x1="260.55" y1="345.54" x2="267.36" y2="345.54"/><line class="cls-4" x1="287.79" y1="209.34" x2="349.08" y2="209.34"/><line class="cls-4" x1="318.44" y1="280.85" x2="318.44" y2="274.03"/><polyline class="cls-4" points="383.13 318.3 383.13 379.59 362.7 379.59 362.7 318.3"/><polyline class="cls-4" points="274.17 318.3 274.17 379.59 253.74 379.59 253.74 318.3"/><polyline class="cls-4" points="253.74 291.06 253.74 216.15 274.17 216.15 274.17 291.06"/><polyline class="cls-4" points="362.7 291.06 362.7 216.15 383.13 216.15 383.13 291.06"/><path class="cls-4" d="M287.79,223V202.53a6.81,6.81,0,0,1,6.81-6.81h47.67a6.81,6.81,0,0,1,6.81,6.81V223"/><polyline class="cls-4" points="383.13 222.96 424 222.96 424 372.78 383.13 372.78"/><polyline class="cls-4" points="253.74 372.78 212.88 372.78 212.88 222.96 253.74 222.96"/></svg>