<svg id="Layer_1" data-name="Layer 1" xmlns="http://www.w3.org/2000/svg" viewBox="0 0 600 600"><defs><style>.cls-1{fill:#c1c1c1;}.cls-2{fill:#f76b11;}.cls-3{fill:#fff;}.cls-3,.cls-4{stroke:#f76b11;stroke-miterlimit:10;stroke-width:5px;}.cls-4{fill:none;}</style></defs><title>TypeofC-04</title><rect class="cls-1" x="480.63" y="484.63" width="13.75" height="13.75" transform="translate(-4 979) rotate(-90)"/><rect class="cls-1" x="480.63" y="421.63" width="13.75" height="13.75" transform="translate(59 916) rotate(-90)"/><rect class="cls-1" x="480.63" y="379.63" width="13.75" height="13.75" transform="translate(101 874) rotate(-90)"/><rect class="cls-1" x="502.88" y="463.63" width="13.75" height="13.75" transform="translate(39.25 980.25) rotate(-90)"/><rect class="cls-1" x="502.88" y="442.63" width="13.75" height="13.75" transform="translate(60.25 959.25) rotate(-90)"/><rect class="cls-1" x="502.88" y="421.63" width="13.75" height="13.75" transform="translate(81.25 938.25) rotate(-90)"/><rect class="cls-1" x="502.88" y="379.63" width="13.75" height="13.75" transform="translate(123.25 896.25) rotate(-90)"/><rect class="cls-1" x="522.63" y="505.63" width="13.75" height="13.75" transform="translate(17 1042) rotate(-90)"/><rect class="cls-1" x="522.63" y="379.63" width="13.75" height="13.75" transform="translate(143 916) rotate(-90)"/><rect class="cls-2" x="76.82" y="471.22" width="13.75" height="13.75"/><rect class="cls-2" x="139.82" y="471.22" width="13.75" height="13.75"/><rect class="cls-2" x="181.82" y="471.22" width="13.75" height="13.75"/><rect class="cls-2" x="97.82" y="493.47" width="13.75" height="13.75"/><rect class="cls-2" x="118.82" y="493.47" width="13.75" height="13.75"/><rect class="cls-2" x="139.82" y="493.47" width="13.75" height="13.75"/><rect class="cls-2" x="181.82" y="493.47" width="13.75" height="13.75"/><rect class="cls-2" x="55.82" y="513.22" width="13.75" height="13.75"/><rect class="cls-2" x="181.82" y="513.22" width="13.75" height="13.75"/><rect class="cls-2" x="501.63" y="141.61" width="13.75" height="13.75" transform="translate(1017 296.96) rotate(180)"/><rect class="cls-2" x="438.63" y="141.61" width="13.75" height="13.75" transform="translate(891 296.96) rotate(180)"/><rect class="cls-2" x="396.63" y="141.61" width="13.75" height="13.75" transform="translate(807 296.96) rotate(180)"/><rect class="cls-2" x="480.63" y="119.36" width="13.75" height="13.75" transform="translate(975 252.46) rotate(180)"/><rect class="cls-2" x="459.63" y="119.36" width="13.75" height="13.75" transform="translate(933 252.46) rotate(180)"/><rect class="cls-2" x="438.63" y="119.36" width="13.75" height="13.75" transform="translate(891 252.46) rotate(180)"/><rect class="cls-2" x="396.63" y="119.36" width="13.75" height="13.75" transform="translate(807 252.46) rotate(180)"/><rect class="cls-2" x="522.63" y="99.61" width="13.75" height="13.75" transform="translate(1059 212.96) rotate(180)"/><rect class="cls-2" x="396.63" y="99.61" width="13.75" height="13.75" transform="translate(807 212.96) rotate(180)"/><circle class="cls-3" cx="307.09" cy="297.34" r="220"/><path class="cls-4" d="M247,294.09h29.24l35.73,13H341.2a9.75,9.75,0,0,1,0,19.49H305.46a9.75,9.75,0,0,0-9.75,9.75"/><path class="cls-4" d="M347.69,323.33l52-16.24a9.75,9.75,0,0,1,9.75,9.75c0,3.24-3.25,6.5-3.25,6.5L325,365.56h-6.5l-55.22-19.49H247"/><line class="cls-4" x1="237.25" y1="339.57" x2="230.75" y2="339.57"/><line class="cls-4" x1="224.25" y1="339.57" x2="217.76" y2="339.57"/><path class="cls-4" d="M204.76,287.6h39a3.25,3.25,0,0,1,3.25,3.25v58.47a3.25,3.25,0,0,1-3.25,3.25h-39"/><polygon class="cls-4" points="409.42 255.11 259.99 255.11 272.98 229.12 324.95 229.12 409.42 245.37 409.42 255.11"/><polyline class="cls-4" points="259.99 255.11 246.99 229.12 263.24 229.12"/><polyline class="cls-4" points="409.42 255.11 315.21 274.6 282.73 274.6 276.23 255.11"/><line class="cls-4" x1="237.25" y1="229.12" x2="204.76" y2="229.12"/><line class="cls-4" x1="217.76" y1="242.12" x2="240.5" y2="242.12"/><line class="cls-4" x1="230.75" y1="255.11" x2="243.74" y2="255.11"/><line class="cls-4" x1="224.25" y1="255.11" x2="204.76" y2="255.11"/></svg>